<svg xmlns="http://www.w3.org/2000/svg" xmlns:xlink="http://www.w3.org/1999/xlink" viewBox="0 0 46 11" preserveAspectRatio="xMidYMid" style="display: block; shape-rendering: auto; background: transparent;" width="46" height="11"><style type="text/css">
  .ld-text text {
    text-anchor: middle;
    dominant-baseline: middle;
    font-size: 12px;
    opacity: 0;
    user-select: none;
    pointer-events: none;
  }
</style>
<g style="transform-origin:23px 5.5px;transform:scale(1)" class="ld-text">
<g transform="translate(23,5.5)">
  <g transform="scale(0.1500) translate(0,0)"><g class="path" style="opacity: 1; animation: 1.69492s linear -0.932203s infinite normal forwards running animate-oozjhaz7td; transform-box: view-box; transform-origin: -101.97px -26.53px;"><path d="M19.38 2.92L19.38 2.92Q19.38 4.41 18.81 5.74Q18.24 7.06 17.27 8.04Q16.29 9.02 14.96 9.58Q13.63 10.15 12.15 10.15L12.15 10.15Q10.66 10.15 9.36 9.58Q8.05 9.02 7.07 8.04Q6.09 7.06 5.53 5.74Q4.96 4.41 4.96 2.92L4.96 2.92Q4.96 1.44 5.53 0.13Q6.09-1.18 7.07-2.15Q8.05-3.13 9.36-3.70Q10.66-4.26 12.15-4.26L12.15-4.26Q13.63-4.26 14.96-3.70Q16.29-3.13 17.27-2.15Q18.24-1.18 18.81 0.13Q19.38 1.44 19.38 2.92" style="fill: rgb(255, 0, 0);" transform="translate(-114.140,-29.472)"></path></g><g class="path" style="opacity: 1; animation: 1.69492s linear -0.745763s infinite normal forwards running animate-oozjhaz7td; transform-box: view-box; transform-origin: -101.97px 6.93px;"><path d="M18.79 13.86L18.79 58.94L5.55 58.94L5.55 13.86L18.79 13.86" style="fill: rgb(251, 176, 52);" transform="translate(-114.140,-29.472)"></path></g><g class="path" style="opacity: 1; animation: 1.69492s linear -0.559322s infinite normal forwards running animate-oozjhaz7td; transform-box: view-box; transform-origin: -62.82px -0.87px;"><path d="M75.31-2.78L75.31 58.94L70.23 58.94L64.38 49.14Q63.52 51.60 62.01 53.59Q60.51 55.58 58.54 57.01Q56.56 58.43 54.20 59.21Q51.84 59.99 49.22 59.99L49.22 59.99Q44.06 59.99 40 58.16Q35.94 56.32 33.13 53.14Q30.31 49.96 28.83 45.66Q27.34 41.36 27.34 36.44L27.34 36.44Q27.34 31.52 28.83 27.22Q30.31 22.92 33.13 19.76Q35.94 16.60 40 14.76Q44.06 12.92 49.22 12.92L49.22 12.92Q53.16 12.92 56.46 14.45Q59.77 15.97 62.11 19.21L62.11 19.21L62.11-2.78L75.31-2.78 zM62.03 36.44L62.03 36.44Q62.03 34.88 61.80 33Q61.56 31.13 61.05 29.21Q60.55 27.30 59.73 25.50Q58.91 23.71 57.71 22.30Q56.52 20.89 54.94 20.05Q53.36 19.21 51.33 19.21L51.33 19.21Q49.10 19.21 47.46 20.01Q45.82 20.81 44.65 22.16Q43.48 23.51 42.71 25.27Q41.95 27.03 41.52 28.94Q41.09 30.85 40.92 32.79Q40.74 34.72 40.74 36.44L40.74 36.44Q40.74 38.16 40.92 40.09Q41.09 42.03 41.52 43.94Q41.95 45.85 42.71 47.63Q43.48 49.41 44.65 50.76Q45.82 52.10 47.46 52.90Q49.10 53.71 51.33 53.71L51.33 53.71Q53.55 53.71 55.23 52.92Q56.91 52.14 58.11 50.80Q59.30 49.45 60.06 47.71Q60.82 45.97 61.25 44.04Q61.68 42.10 61.86 40.15Q62.03 38.20 62.03 36.44" style="fill: rgb(255, 221, 0);" transform="translate(-114.140,-29.472)"></path></g><g class="path" style="opacity: 1; animation: 1.69492s linear -0.372881s infinite normal forwards running animate-oozjhaz7td; transform-box: view-box; transform-origin: -7.42px 6.81px;"><path d="M97.19 37.53L97.19 37.53Q99.61 38.08 102.03 38.39Q104.45 38.71 106.91 38.71L106.91 38.71Q109.49 38.71 111.70 38.22Q113.91 37.73 115.53 36.58Q117.15 35.42 118.09 33.51Q119.02 31.60 119.02 28.74L119.02 28.74Q119.02 26.44 118.40 24.53Q117.77 22.61 116.54 21.24Q115.31 19.88 113.52 19.12Q111.72 18.35 109.34 18.35L109.34 18.35Q107.11 18.35 105.33 19.17Q103.55 19.99 102.21 21.38Q100.86 22.77 99.90 24.60Q98.95 26.44 98.32 28.43Q97.70 30.42 97.42 32.46Q97.15 34.49 97.15 36.28L97.15 36.28Q97.15 36.60 97.15 36.91Q97.15 37.22 97.19 37.53 zM129.73 28.63L129.73 28.63Q129.73 31.40 128.83 33.57Q127.93 35.74 126.39 37.38Q124.84 39.02 122.81 40.15Q120.78 41.28 118.48 42.01Q116.17 42.73 113.73 43.04Q111.29 43.35 108.98 43.35L108.98 43.35Q106.05 43.35 103.20 42.94Q100.35 42.53 97.58 41.64L97.58 41.64Q98.01 44.21 98.95 46.54Q99.88 48.86 101.45 50.60Q103.01 52.34 105.29 53.35Q107.58 54.37 110.70 54.37L110.70 54.37Q112.77 54.37 114.65 53.74Q116.52 53.12 118.09 51.99Q119.65 50.85 120.84 49.29Q122.03 47.73 122.77 45.81L122.77 45.81L128.48 47.92Q127.19 51.01 124.94 53.26Q122.70 55.50 119.86 56.97Q117.03 58.43 113.85 59.14Q110.66 59.84 107.54 59.84L107.54 59.84Q102.38 59.84 98.01 58.10Q93.63 56.36 90.47 53.24Q87.30 50.11 85.51 45.78Q83.71 41.44 83.71 36.28L83.71 36.28Q83.71 31.13 85.51 26.79Q87.30 22.46 90.47 19.33Q93.63 16.21 98.01 14.47Q102.38 12.73 107.54 12.73L107.54 12.73Q110.04 12.73 112.66 13.08Q115.27 13.43 117.73 14.19Q120.20 14.96 122.38 16.17Q124.57 17.38 126.19 19.15Q127.81 20.93 128.77 23.28Q129.73 25.62 129.73 28.63" style="fill: rgb(193, 216, 47);" transform="translate(-114.140,-29.472)"></path></g><g class="path" style="opacity: 1; animation: 1.69492s linear -0.186441s infinite normal forwards running animate-oozjhaz7td; transform-box: view-box; transform-origin: 45.27px 6.81px;"><path d="M183.40 13.82L183.40 58.94L170.20 58.94L170.20 53.55Q167.85 56.75 164.55 58.30Q161.25 59.84 157.30 59.84L157.30 59.84Q152.15 59.84 148.09 58Q144.02 56.17 141.21 52.98Q138.40 49.80 136.91 45.50Q135.43 41.21 135.43 36.28L135.43 36.28Q135.43 31.36 136.91 27.06Q138.40 22.77 141.21 19.58Q144.02 16.40 148.09 14.56Q152.15 12.73 157.30 12.73L157.30 12.73Q159.92 12.73 162.29 13.51Q164.65 14.29 166.62 15.72Q168.59 17.14 170.10 19.15Q171.60 21.17 172.46 23.63L172.46 23.63L178.32 13.82L183.40 13.82 zM170.12 36.28L170.12 36.28Q170.12 34.53 169.94 32.57Q169.77 30.62 169.34 28.71Q168.91 26.79 168.14 25.05Q167.38 23.31 166.19 21.97Q165 20.62 163.32 19.84Q161.64 19.06 159.41 19.06L159.41 19.06Q157.19 19.06 155.55 19.86Q153.91 20.66 152.73 22.01Q151.56 23.35 150.80 25.11Q150.04 26.87 149.61 28.78Q149.18 30.70 149 32.63Q148.83 34.56 148.83 36.28L148.83 36.28Q148.83 38 149 39.96Q149.18 41.91 149.61 43.82Q150.04 45.74 150.80 47.49Q151.56 49.25 152.73 50.60Q153.91 51.95 155.55 52.75Q157.19 53.55 159.41 53.55L159.41 53.55Q161.45 53.55 163.03 52.71Q164.61 51.87 165.80 50.46Q166.99 49.06 167.81 47.26Q168.63 45.46 169.14 43.55Q169.65 41.64 169.88 39.74Q170.12 37.85 170.12 36.28" style="fill: rgb(0, 164, 228);" transform="translate(-114.140,-29.472)"></path></g><g class="path" style="opacity: 1; animation: 1.69492s linear 0s infinite normal forwards running animate-oozjhaz7td; transform-box: view-box; transform-origin: 98.26px 6.81px;"><path d="M233.24 44.53L233.24 44.53Q233.24 47.49 232.38 49.80Q231.52 52.10 230.04 53.80Q228.55 55.50 226.52 56.65Q224.49 57.81 222.17 58.51Q219.84 59.21 217.30 59.53Q214.77 59.84 212.27 59.84L212.27 59.84Q208.91 59.84 206.33 59.41Q203.75 58.98 201.41 58.02Q199.06 57.06 196.74 55.54Q194.41 54.02 191.56 51.83L191.56 51.83L199.26 45.54Q200.31 47.53 202.05 49.15Q203.79 50.78 205.66 51.95Q207.54 53.12 209.30 53.74Q211.05 54.37 212.15 54.37L212.15 54.37Q213.05 54.37 214.18 54.31Q215.31 54.25 216.48 54.08Q217.66 53.90 218.79 53.55Q219.92 53.20 220.80 52.59Q221.68 51.99 222.21 51.07Q222.73 50.15 222.73 48.86L222.73 48.86Q222.73 47.53 222.05 46.54Q221.37 45.54 220.27 44.80Q219.18 44.06 217.77 43.55Q216.37 43.04 214.94 42.65Q213.52 42.26 212.19 41.97Q210.86 41.67 209.88 41.40L209.88 41.40Q208.09 40.89 206.09 40.37Q204.10 39.84 202.15 39.15Q200.20 38.47 198.42 37.53Q196.64 36.60 195.29 35.29Q193.95 33.98 193.14 32.20Q192.34 30.42 192.34 28.04L192.34 28.04Q192.34 23.67 194.08 20.72Q195.82 17.77 198.67 15.99Q201.52 14.21 205.16 13.47Q208.79 12.73 212.54 12.73L212.54 12.73Q215.12 12.73 217.97 13.26Q220.82 13.78 223.52 14.82Q226.21 15.85 228.55 17.34Q230.90 18.82 232.46 20.74L232.46 20.74L224.77 27.06Q223.91 24.72 222.52 23.04Q221.13 21.36 219.51 20.29Q217.89 19.21 216.19 18.71Q214.49 18.20 213.05 18.20L213.05 18.20Q211.64 18.20 209.88 18.31Q208.13 18.43 206.58 18.98Q205.04 19.53 203.96 20.64Q202.89 21.75 202.89 23.71L202.89 23.71Q202.89 25.11 203.54 26.11Q204.18 27.10 205.23 27.83Q206.29 28.55 207.64 29.04Q208.98 29.53 210.39 29.90Q211.80 30.27 213.13 30.54Q214.45 30.81 215.51 31.13L215.51 31.13Q217.30 31.64 219.32 32.16Q221.33 32.69 223.28 33.37Q225.23 34.06 227.05 34.98Q228.87 35.89 230.23 37.22Q231.60 38.55 232.42 40.33Q233.24 42.10 233.24 44.53" style="fill: rgb(138, 121, 103);" transform="translate(-114.140,-29.472)"></path></g></g><text dy="0.35em" fill="#ff0000" font-family="Aclonica" font-size="12">ideas</text>
</g>
</g><style type="text/css">@keyframes animate-oozjhaz7td { 0.00% {animation-timing-function: cubic-bezier(0.33,0.00,0.67,0.00);transform: translate(0.00px,0.00px) rotate(0.00deg) scale(1.00, 1.00) skew(0deg, 0.00deg) ;opacity: 1.00;}48.00% {transform: translate(0.00px,0.00px) rotate(0.00deg) ;opacity: 1.00;}50.00% {animation-timing-function: cubic-bezier(0.33,0.00,0.67,0.00);transform: translate(0.00px,0.00px) rotate(0.00deg) ;opacity: 0.00;}100.00% {animation-timing-function: cubic-bezier(0.33,0.00,0.67,0.00);transform: translate(0.00px,0.00px) rotate(0.00deg) ;opacity: 0.00;} }</style><!-- [ldio] generated by https://loading.io --></svg>