<svg xmlns="http://www.w3.org/2000/svg" xmlns:xlink="http://www.w3.org/1999/xlink" viewBox="0 0 125 35" preserveAspectRatio="xMidYMid" style="display: block; shape-rendering: auto; background: transparent; margin-bottom: -10px !important" width="125" height="35"><style type="text/css">
  .ld-text text {
    text-anchor: middle;
    dominant-baseline: middle;
    font-size: 32px;
    opacity: 0;
    user-select: none;
    pointer-events: none;
    margin-bottom: -10px !important;
  }
</style>
<g class="ld-text" style="transform-origin:62.5px 17.5px;transform:scale(1)">
<g transform="translate(62.5,17.5)">
  <g transform="scale(0.4000) translate(0,0)"><g class="path" style="opacity: 1; transform-origin: -108.6px 11.46px; transform: matrix3d(1, 0, 0, 0, 0, 1, 0, 0, 0, 0, 1, 0, 0, 0, 0, 1); animation: 1s linear -0.55s infinite normal forwards running animate-qfmcn3sptp; transform-box: view-box;"><path d="M21.12 45.12L21.12 45.12Q15.28 45.12 10.48 43.56Q5.68 42 2.40 39.44L2.40 39.44L6.24 33.04Q9.12 35.44 12.72 36.96Q16.32 38.48 21.12 38.48L21.12 38.48Q26.88 38.48 30.24 36.08Q33.60 33.68 33.60 29.60L33.60 29.60Q33.60 27.28 32.64 25.48Q31.68 23.68 28.92 21.96Q26.16 20.24 20.80 18.24L20.80 18.24Q15.04 16 11.60 13.72Q8.16 11.44 6.68 8.52Q5.20 5.60 5.20 1.60L5.20 1.60Q5.20-2.40 7.40-5.64Q9.60-8.88 13.88-10.84Q18.16-12.80 24.24-12.80L24.24-12.80Q29.20-12.80 33.16-11.80Q37.12-10.80 40.88-8.96L40.88-8.96L38.08-2.48Q35.36-4.08 31.72-5.16Q28.08-6.24 24.08-6.24L24.08-6.24Q18.80-6.24 15.76-4.16Q12.72-2.08 12.72 1.20L12.72 1.20Q12.72 3.28 13.60 4.88Q14.48 6.48 17.08 8Q19.68 9.52 24.88 11.44L24.88 11.44Q31.12 13.76 34.76 16.32Q38.40 18.88 39.92 21.88Q41.44 24.88 41.44 28.72L41.44 28.72Q41.44 33.92 38.84 37.60Q36.24 41.28 31.64 43.20Q27.04 45.12 21.12 45.12" style="fill: rgb(81, 202, 204);" transform="translate(-130.520,-22.080)"></path></g><g class="path" style="opacity: 1; transform-origin: -63.12px 14.34px; transform: matrix3d(1, 0, 0, 0, 0, 1, 0, 0, 0, 0, 1, 0, 0, 0, 0, 1); animation: 1s linear -0.44s infinite normal forwards running animate-qfmcn3sptp; transform-box: view-box;"><path d="M68.48 45.12L68.48 45.12Q59.52 45.12 54.28 39.40Q49.04 33.68 49.04 23.36L49.04 23.36Q49.04 17.12 51.40 12.20Q53.76 7.28 58 4.44Q62.24 1.60 67.84 1.60L67.84 1.60Q73.84 1.60 77.80 4.20Q81.76 6.80 83.76 11.20Q85.76 15.60 85.76 20.88L85.76 20.88Q85.76 23.68 85.52 26.32L85.52 26.32L56.40 26.32Q57.12 32.16 60.48 35.44Q63.84 38.72 69.36 38.72L69.36 38.72Q72.96 38.72 75.84 37.96Q78.72 37.20 81.36 36L81.36 36L83.04 42.16Q80.16 43.44 76.56 44.28Q72.96 45.12 68.48 45.12 zM56.32 20.48L56.32 20.48L79.12 20.48Q79.12 14.40 76.08 11.12Q73.04 7.84 67.68 7.84L67.68 7.84Q63.04 7.84 60 11.08Q56.96 14.32 56.32 20.48" style="fill: rgb(157, 248, 113);" transform="translate(-130.520,-22.080)"></path></g><g class="path" style="opacity: 1; transform-origin: -23.04px 14.34px; transform: matrix3d(1, 0, 0, 0, 0, 1, 0, 0, 0, 0, 1, 0, 0, 0, 0, 1); animation: 1s linear -0.33s infinite normal forwards running animate-qfmcn3sptp; transform-box: view-box;"><path d="M106.56 45.12L106.56 45.12Q101.84 45.12 98.04 43.92Q94.24 42.72 91.76 40.80L91.76 40.80L94.80 34.80Q96.88 36.56 100.04 37.72Q103.20 38.88 106.80 38.88L106.80 38.88Q111.28 38.88 113.56 37.40Q115.84 35.92 115.84 33.60L115.84 33.60Q115.84 31.92 115 30.64Q114.16 29.36 111.92 28.12Q109.68 26.88 105.44 25.44L105.44 25.44Q99.60 23.44 96.68 20.68Q93.76 17.92 93.76 13.04L93.76 13.04Q93.76 8.24 97.96 4.92Q102.16 1.60 109.60 1.60L109.60 1.60Q113.60 1.60 116.72 2.44Q119.84 3.28 122.32 4.56L122.32 4.56L120.32 10.48Q118.16 9.20 115.40 8.40Q112.64 7.60 109.28 7.60L109.28 7.60Q105.12 7.60 102.96 9.28Q100.80 10.96 100.80 12.96L100.80 12.96Q100.80 14.88 102.48 16.24Q104.16 17.60 109.04 19.20L109.04 19.20Q116.96 21.84 120.08 25.04Q123.20 28.24 123.20 33.04L123.20 33.04Q123.20 38.64 118.68 41.88Q114.16 45.12 106.56 45.12" style="fill: rgb(224, 255, 119);" transform="translate(-130.520,-22.080)"></path></g><g class="path" style="opacity: 1; transform-origin: 17.84px 14.34px; transform: matrix3d(1, 0, 0, 0, 0, 1, 0, 0, 0, 0, 1, 0, 0, 0, 0, 1); animation: 1s linear -0.22s infinite normal forwards running animate-qfmcn3sptp; transform-box: view-box;"><path d="M149.44 45.12L149.44 45.12Q140.48 45.12 135.24 39.40Q130 33.68 130 23.36L130 23.36Q130 17.12 132.36 12.20Q134.72 7.28 138.96 4.44Q143.20 1.60 148.80 1.60L148.80 1.60Q154.80 1.60 158.76 4.20Q162.72 6.80 164.72 11.20Q166.72 15.60 166.72 20.88L166.72 20.88Q166.72 23.68 166.48 26.32L166.48 26.32L137.36 26.32Q138.08 32.16 141.44 35.44Q144.80 38.72 150.32 38.72L150.32 38.72Q153.92 38.72 156.80 37.96Q159.68 37.20 162.32 36L162.32 36L164 42.16Q161.12 43.44 157.52 44.28Q153.92 45.12 149.44 45.12 zM137.28 20.48L137.28 20.48L160.08 20.48Q160.08 14.40 157.04 11.12Q154 7.84 148.64 7.84L148.64 7.84Q144 7.84 140.96 11.08Q137.92 14.32 137.28 20.48" style="fill: rgb(222, 157, 214);" transform="translate(-130.520,-22.080)"></path></g><g class="path" style="opacity: 1; transform-origin: 63.28px 13.57px; transform: matrix3d(1, 0, 0, 0, 0, 1, 0, 0, 0, 0, 1, 0, 0, 0, 0, 1); animation: 1s linear -0.11s infinite normal forwards running animate-qfmcn3sptp; transform-box: view-box;"><path d="M183.52 44.16L176.32 44.16L176.32 2.56L183.28 2.56L183.28 9.52Q185.52 6.16 189 3.88Q192.48 1.60 197.28 1.60L197.28 1.60Q204.32 1.60 207.80 5.84Q211.28 10.08 211.28 17.04L211.28 17.04L211.28 44.16L204.08 44.16L204.08 17.84Q204.08 13.36 201.96 10.64Q199.84 7.92 196.08 7.92L196.08 7.92Q192.40 7.92 189.12 10.52Q185.84 13.12 183.52 16.64L183.52 16.64L183.52 44.16" style="fill: rgb(255, 112, 142);" transform="translate(-130.520,-22.080)"></path></g><g class="path" style="opacity: 1; transform-origin: 111.64px 14.34px; transform: matrix3d(1, 0, 0, 0, 0, 1, 0, 0, 0, 0, 1, 0, 0, 0, 0, 1); animation: 1s linear 0s infinite normal forwards running animate-qfmcn3sptp; transform-box: view-box;"><path d="M239.60 45.12L239.60 45.12Q234.40 45.12 230.16 42.48Q225.92 39.84 223.40 35Q220.88 30.16 220.88 23.60L220.88 23.60Q220.88 17.36 223.40 12.40Q225.92 7.44 230.36 4.52Q234.80 1.60 240.56 1.60L240.56 1.60Q244.16 1.60 247.08 2.84Q250 4.08 252.16 5.92L252.16 5.92L252.16 2.56L258.72 2.56L258.72 34.08Q258.72 37.12 260.20 38.04Q261.68 38.96 263.44 38.96L263.44 38.96L261.92 44.56Q254.24 44.56 252.64 38.32L252.64 38.32Q250.80 40.88 247.64 43Q244.48 45.12 239.60 45.12 zM241.20 38.72L241.20 38.72Q244.24 38.72 246.96 37.24Q249.68 35.76 251.52 33.52L251.52 33.52L251.52 11.20Q249.36 9.68 246.76 8.76Q244.16 7.84 241.28 7.84L241.28 7.84Q237.44 7.84 234.52 9.80Q231.60 11.76 229.92 15.24Q228.24 18.72 228.24 23.36L228.24 23.36Q228.24 27.84 229.92 31.32Q231.60 34.80 234.56 36.76Q237.52 38.72 241.20 38.72" style="fill: rgb(81, 202, 204);" transform="translate(-130.520,-22.080)"></path></g></g><text font-size="32" font-family="ABeeZee" fill="#32ff00" dy="0.35em">Sesena</text>
</g>
</g><style type="text/css">@keyframes animate-qfmcn3sptp { 0.00% {transform: translate(0.00px,0.00px) rotate(0.00deg) scale(1.00, 1.00) skew(0deg, 0.00deg) ;opacity: 1.00;}2.00% {animation-timing-function: cubic-bezier(0.20,0.39,0.50,0.97);transform: translate(0.00px,-1.08px) rotate(0.00deg) ;}36.00% {animation-timing-function: cubic-bezier(0.50,0.03,0.80,0.61);transform: translate(0.00px,-10.00px) rotate(0.00deg) ;}72.00% {transform: translate(0.00px,-0.12px) rotate(0.00deg) ;}74.00% {animation-timing-function: cubic-bezier(0.24,0.43,0.48,0.91);transform: translate(0.00px,0.00px) rotate(0.00deg) scale(1.00, 0.95) ;}86.00% {animation-timing-function: cubic-bezier(0.53,0.08,0.77,0.57);transform: translate(0.00px,0.00px) rotate(0.00deg) scale(1.00, 0.80) ;}100.00% {animation-timing-function: cubic-bezier(0.53,0.08,0.77,0.57);transform: translate(0.00px,0.00px) rotate(0.00deg) scale(1.00, 1.00) ;} }</style><!-- [ldio] generated by https://loading.io --></svg>